<svg width="177" height="177" viewBox="0 0 177 177" fill="none" xmlns="http://www.w3.org/2000/svg">
<path d="M89.375 0.5C137.313 0.556125 175.948 39.4654 176.494 87.9951L176.5 89.1426C176.444 137.597 137.063 176.519 88.0957 176.5L86.959 176.492C38.9417 175.866 0.490876 136.78 0.5 88.3301L0.507812 87.1816C1.12858 39.0567 39.5705 1.05568 88.2148 0.505859L89.375 0.5ZM31.7012 50.6055C31.8098 59.504 36.8302 66.1812 43.2617 72.0898C42.8392 72.0211 42.4095 71.9525 41.9697 71.8809C40.9393 71.7129 39.8495 71.5358 38.6445 71.3418L37.7588 71.1992L38.1025 72.0273C41.6218 80.5023 47.5546 85.9079 55.3545 90.168C54.0953 90.2559 53.0571 90.3276 51.8662 90.4141L50.9795 90.4785L51.4951 91.2031C56.5833 98.3493 62.841 102.823 70.9053 104.565L71.291 103.662C67.1614 100.874 63.0252 98.0853 58.873 95.2754C63.9047 94.426 68.2955 93.6838 72.6855 92.9395L73.1611 92.8584L73.0977 92.3809C73.0698 92.1707 73.0435 91.9619 73.0176 91.751C72.9917 91.5409 72.9661 91.3279 72.9375 91.1123L72.8896 90.751L72.5312 90.6865L71.6338 90.5186C62.6959 88.8021 54.5087 85.75 47.7715 78.3145C50.1926 78.2176 52.2013 78.2356 54.0869 77.9443L54.5146 77.873C55.5954 77.6764 56.6431 77.3409 57.7422 76.9492C58.8537 76.5531 59.9953 76.1075 61.333 75.6592L62.5967 75.2363L61.3662 74.7236C51.5954 70.6563 45.1675 67.2809 41.209 63.9521C37.5539 60.8785 36.0329 57.8704 35.915 54.3906C37.3542 55.1027 38.7609 55.8799 40.2256 56.627C41.7046 57.3813 43.218 58.0905 44.7959 58.6104L45.4756 58.8213H45.4766C53.0532 61.0084 60.6624 63.0838 68.2686 65.1572C74.9249 66.9718 81.579 68.7846 88.2119 70.6699L91.0537 71.4834C97.0821 73.2201 103.094 75.1431 108.821 77.626L109.963 78.1299C111.282 78.7245 112.233 79.3151 112.857 79.9033C113.477 80.4866 113.752 81.0424 113.788 81.584C113.825 82.1327 113.623 82.7599 113.102 83.4941C112.645 84.1373 111.963 84.8344 111.047 85.5928L110.64 85.9219C110.032 86.402 109.404 86.8599 108.768 87.3213C108.451 87.551 108.131 87.7819 107.812 88.0156L106.861 88.7285H106.86C98.4436 95.2128 90.834 102.572 85.2773 111.724L84.7461 112.615L84.7451 112.616C83.4969 114.756 82.5213 117.044 81.624 119.353C80.7209 121.676 79.9088 123.989 78.9648 126.255L78.3262 127.787L79.4434 127.036C79.719 127.234 79.9984 127.434 80.2842 127.628L80.5703 127.822L80.8525 127.623C99.8395 114.25 120.348 106.364 143.999 109.465L144.589 109.542L144.563 108.948C144.466 106.596 143.796 104.8 142.717 103.361C141.778 102.11 140.547 101.154 139.171 100.337L138.573 99.9951H138.572C138.028 99.6968 137.477 99.426 136.979 99.1016C136.545 98.8185 136.216 98.5326 136.021 98.2285L135.944 98.0967C134.475 95.168 132.494 93.3844 130.258 92.4043C128.032 91.4287 125.594 91.2668 123.23 91.5039L121.473 91.6807L123.062 92.4512C123.692 92.7564 124.417 93.0331 125.164 93.3096C125.919 93.5888 126.7 93.8696 127.47 94.1895C129.016 94.8317 130.443 95.6037 131.398 96.7344V96.7334C131.965 97.4055 132.498 98.107 133.035 98.8184C133.57 99.5263 134.11 100.247 134.681 100.939C135.754 102.242 136.957 103.474 138.508 104.422C138.473 104.532 138.431 104.671 138.382 104.827C121.676 102.862 106.071 107.166 90.9717 114.037C96.7842 104.671 104.282 97.1937 112.812 90.6055L113.681 89.9395C117.273 87.213 119.068 84.1839 118.782 81.2646C118.504 78.4308 116.289 75.9343 112.411 74.0918L112.031 73.916C107.216 71.7417 102.042 70.217 96.8838 69.0645L95.8525 68.8389C89.8777 67.5588 83.8179 66.5931 77.8164 65.5352C72.1828 64.5421 66.5912 63.4656 61.123 61.9688L60.0312 61.6641C50.4779 58.9401 41.582 54.0561 32.3975 50.1396L31.6924 49.8389L31.7012 50.6055Z" fill="white" stroke="black"/>
</svg>
