<svg width="199" height="55" viewBox="0 0 199 55" fill="none" xmlns="http://www.w3.org/2000/svg">
<path d="M194.709 12.376C194.752 12.443 194.815 12.5055 194.824 12.568C195.827 19.6177 195.827 19.573 188.331 19.5775C181.418 19.5775 174.5 19.832 167.591 19.707C164.624 19.6534 162.111 22.7385 162.217 24.6627C162.365 27.3951 164.687 29.3997 167.897 29.3997C173.621 29.3997 179.349 29.2077 185.063 29.3729C197.074 29.7256 201.694 38.6103 197.461 47.9994C195.555 52.223 191.126 53.8213 186.487 53.9285C176.478 54.1651 166.459 54.058 156.445 54.1294C155.112 54.1383 154.673 53.6651 154.572 52.4507C154.075 46.4681 154.042 46.544 160.301 46.5841C168.724 46.6422 177.161 46.3654 185.575 46.6422C190.347 46.7984 192.316 42.2445 190.142 39.0835C189.167 37.6682 187.906 37.1369 186.172 37.1191C179.579 37.0655 172.981 36.945 166.387 36.878C163.096 36.8423 160.444 35.5565 158.132 33.4491C153.813 29.5158 153.426 24.6672 155.346 19.8855C157.147 15.403 161.041 12.4965 166.45 12.4073C175.814 12.251 185.178 12.3626 194.719 12.3626L194.709 12.376Z" fill="white"/>
<path d="M135.17 3.57172C135.17 5.54432 133.459 7.14344 131.348 7.14344C129.237 7.14344 127.526 5.54432 127.526 3.57172C127.526 1.59911 129.237 0 131.348 0C133.459 0 135.17 1.59911 135.17 3.57172Z" fill="white"/>
<path d="M120.837 3.57172C120.837 5.54432 119.126 7.14344 117.015 7.14344C114.904 7.14344 113.193 5.54432 113.193 3.57172C113.193 1.59911 114.904 0 117.015 0C119.126 0 120.837 1.59911 120.837 3.57172Z" fill="white"/>
<path d="M124.205 54.9955C121.367 54.808 118.324 54.8036 115.357 54.3749C106.346 53.0713 100.671 47.2806 99.8345 38.3067C99.4857 34.5698 99.7628 30.7659 99.9492 27.0022C100.341 19.0864 107.885 12.5189 116.007 11.8804C121.506 11.4474 127.158 11.434 132.619 12.0903C141.916 13.2109 147.998 19.9882 148.165 28.7657C148.242 32.8196 148.189 36.9182 147.649 40.9319C146.67 48.1959 139.804 53.9865 131.993 54.5491C129.461 54.7321 126.924 54.8437 124.205 55V54.9955ZM123.608 47.3565C124.879 47.3565 126.15 47.3431 127.416 47.3565C134.75 47.4369 139.733 43.8875 140.158 37.9942C140.392 34.7528 140.349 31.4713 140.105 28.23C139.742 23.5019 136.183 19.7829 131.066 19.381C126.116 18.9926 121.076 19.0864 116.117 19.4614C112.07 19.765 108.487 23.2251 108.162 26.9754C107.813 31.007 107.751 35.11 108.119 39.1326C108.53 43.6062 112.357 46.7672 117.177 47.1333C119.304 47.294 121.463 47.3565 123.608 47.3565Z" fill="white"/>
<path d="M95.0473 54.0758C91.7841 54.0758 89.1182 53.9151 86.4905 54.1205C83.6764 54.3392 81.4787 53.6472 79.41 51.7855C75.5353 48.2986 71.5316 44.9144 67.3559 41.7445C66.2379 40.8962 64.303 40.6953 62.7454 40.7131C60.7866 40.731 59.6925 40.3559 59.7546 38.3424C59.8072 36.5967 59.7642 34.8466 59.7642 32.9446C65.3923 32.9446 70.6238 32.967 75.8554 32.9402C83.3611 32.9045 87.2979 27.8728 85.0811 21.0776C84.9091 20.5463 84.0443 19.8454 83.4901 19.8364C74.9954 19.6891 66.4959 19.6444 57.9964 19.573C56.2335 19.5596 56.243 20.6669 56.2478 21.85C56.286 31.1766 56.3386 40.5033 56.3243 49.8299C56.3195 55.1473 56.5249 54.0714 51.8141 54.1071C50.8777 54.116 49.9413 54.1071 48.7803 54.1071C48.723 53.107 48.6418 52.3212 48.6418 51.531C48.6418 40.4274 48.6609 29.3238 48.6704 18.2158C48.6704 18.0684 48.6704 17.9211 48.6704 17.7738C48.7421 12.7689 49.0479 12.4028 54.2985 12.3671C64.2217 12.3001 74.1497 12.1751 84.073 12.3671C88.7407 12.4564 91.5882 14.8717 92.6011 19.0819C93.6235 23.3278 93.614 27.7076 91.9848 31.7838C89.8157 37.2039 85.2005 39.9675 78.6742 41.0123C83.944 45.218 89.2137 49.4192 95.0425 54.0713L95.0473 54.0758Z" fill="white"/>
<path d="M11.4524 29.4756H36.8505C36.8505 31.6365 36.9604 33.6902 36.7693 35.7172C36.7263 36.186 35.6465 36.9271 35.035 36.936C27.8111 37.0253 20.5873 36.9807 13.3682 37.0209C11.9588 37.0298 11.3568 36.5967 11.4285 35.2171C11.524 33.3866 11.4524 31.5472 11.4524 29.4756Z" fill="white"/>
<path d="M40.7634 46.6779C40.6583 48.9058 40.6535 50.83 40.4098 52.732C40.3477 53.2275 39.5355 54.0401 39.0673 54.0401C29.1393 53.991 19.197 54.1071 9.2881 53.6204C3.40679 53.3302 0.067196 49.4058 0.0289747 43.9366C-0.0283574 35.1948 0.0146417 26.453 0.0289747 17.7113C0.0337524 12.8805 0.654851 12.2599 5.93895 12.2197C15.7141 12.1483 25.4892 12.1483 35.2643 12.1215C35.5844 12.1215 35.9045 12.1081 36.2198 12.1349C37.677 12.2733 40.343 12.2689 40.3955 12.6037C40.7108 14.6842 40.5675 16.8585 40.2378 18.9569C40.1805 19.3185 38.4988 19.6579 37.5671 19.6668C28.5851 19.7204 19.6031 19.6936 10.6211 19.7025C9.83753 19.7025 9.05399 19.7695 8.11279 19.8096C8.03157 20.4793 7.8978 21.0374 7.8978 21.5955C7.8978 28.3371 7.8978 35.0787 7.95035 41.8204C7.9838 46.2761 8.51889 46.7359 13.3826 46.7092C21.7291 46.6645 30.0757 46.6065 38.4223 46.5618C39.1151 46.5618 39.8126 46.6288 40.7634 46.6824V46.6779Z" fill="white"/>
</svg>
