<svg width="189" height="188" viewBox="0 0 189 188" fill="none" xmlns="http://www.w3.org/2000/svg">
<path d="M93.59 187.04C41.72 187.02 -0.0099982 145.23 1.79689e-06 93.34C0.0200018 41.21 41.99 -0.0499546 94.95 4.53953e-05C146.58 0.0600454 188.1 42.07 188.04 94.2C187.98 145.7 145.9 187.06 93.59 187.04ZM84.41 133.6C84.8 133.88 85.19 134.16 85.59 134.43C105.83 120.25 127.75 111.85 153.05 115.15C152.85 110.37 150.33 107.98 146.96 106.13C145.86 105.53 144.46 104.9 143.95 103.9C140.93 97.91 135.88 96.73 130.97 97.22C133.54 98.46 137.8 99.29 140 101.88C142.45 104.77 144.28 108.12 147.74 110.08C147.81 110.12 147.59 110.65 147.39 111.35C129.03 109.09 111.91 113.99 95.29 121.71C101.83 110.7 110.52 102.12 120.45 94.62C127.96 88.95 127.39 82.45 118.8 78.59C113.39 76.16 107.54 74.5 101.72 73.26C89.05 70.56 76.04 69.19 63.63 65.67C53.44 62.78 43.9 57.58 34.21 53.47C34.33 63.25 40.22 70.47 47.66 76.99C45.6 76.66 43.53 76.32 40.97 75.91C44.89 85.3 51.67 91.08 60.7 95.68C58.41 95.84 56.94 95.94 55.14 96.07C60.48 103.53 67.02 108.17 75.44 109.98C70.69 106.79 65.93 103.6 61.15 100.38C67.05 99.39 72.09 98.54 77.13 97.69C77.07 97.24 77.02 96.8 76.96 96.35C66.71 94.5 57.26 91.14 49.62 82.28C52.97 82.1 55.45 82.2 57.82 81.77C60.03 81.37 62.14 80.4 64.99 79.45C44.22 70.85 37.41 65.08 37.62 56.63C41.23 58.33 44.68 60.56 48.46 61.65C64.55 66.27 80.78 70.42 96.88 75.03C103.72 76.99 110.56 79.18 117.04 82.08C122.75 84.64 122.72 87.4 117.87 91.21C116.56 92.24 115.17 93.17 113.85 94.18C104.65 101.23 96.39 109.24 90.49 119.27C87.88 123.72 86.39 128.82 84.38 133.62L84.41 133.6Z" fill="black"/>
</svg>
